<svg xmlns="http://www.w3.org/2000/svg" viewBox="0 0 32 32" width="32" height="32">
  <defs>
    <linearGradient id="dnaGradient" x1="0%" y1="0%" x2="100%" y2="100%">
      <stop offset="0%" style="stop-color:#6b46c1;stop-opacity:1" />
      <stop offset="50%" style="stop-color:#4c1d95;stop-opacity:1" />
      <stop offset="100%" style="stop-color:#1e1b4b;stop-opacity:1" />
    </linearGradient>
  </defs>

  <!-- DNA Helix Background -->
  <rect width="32" height="32" rx="4" fill="url(#dnaGradient)"/>

  <!-- DNA Double Helix -->
  <path d="M8 6 Q12 8 16 6 Q20 4 24 6" stroke="#fbbf24" stroke-width="1.5" fill="none"/>
  <path d="M8 10 Q12 12 16 10 Q20 8 24 10" stroke="#fbbf24" stroke-width="1.5" fill="none"/>
  <path d="M8 14 Q12 16 16 14 Q20 12 24 14" stroke="#fbbf24" stroke-width="1.5" fill="none"/>
  <path d="M8 18 Q12 20 16 18 Q20 16 24 18" stroke="#fbbf24" stroke-width="1.5" fill="none"/>
  <path d="M8 22 Q12 24 16 22 Q20 20 24 22" stroke="#fbbf24" stroke-width="1.5" fill="none"/>
  <path d="M8 26 Q12 28 16 26 Q20 24 24 26" stroke="#fbbf24" stroke-width="1.5" fill="none"/>

  <!-- Connecting Bars -->
  <line x1="10" y1="6" x2="10" y2="10" stroke="#fbbf24" stroke-width="1"/>
  <line x1="14" y1="10" x2="14" y2="14" stroke="#fbbf24" stroke-width="1"/>
  <line x1="18" y1="14" x2="18" y2="18" stroke="#fbbf24" stroke-width="1"/>
  <line x1="22" y1="18" x2="22" y2="22" stroke="#fbbf24" stroke-width="1"/>
  <line x1="18" y1="22" x2="18" y2="26" stroke="#fbbf24" stroke-width="1"/>
  <line x1="14" y1="18" x2="14" y2="22" stroke="#fbbf24" stroke-width="1"/>
  <line x1="10" y1="14" x2="10" y2="18" stroke="#fbbf24" stroke-width="1"/>
  <line x1="6" y1="10" x2="6" y2="14" stroke="#fbbf24" stroke-width="1"/>

  <!-- GitHub Cat Silhouette -->
  <path d="M16 8 C14 8 12 10 12 12 C12 13.5 13 14.5 14 15 L14 17 C14 18 15 19 16 19 C17 19 18 18 18 17 L18 15 C19 14.5 20 13.5 20 12 C20 10 18 8 16 8 Z" fill="#fbbf24"/>
  <circle cx="14" cy="11" r="1" fill="#1e1b4b"/>
  <circle cx="18" cy="11" r="1" fill="#1e1b4b"/>
  <path d="M14 13 C15 14 17 14 18 13" stroke="#1e1b4b" stroke-width="0.5" fill="none"/>
</svg>